<svg xmlns="http://www.w3.org/2000/svg" viewBox="0 0 100 100"><defs><style>.cls-1{fill:#fff;opacity:0;}.cls-2{fill:#4d4d4d;}</style></defs><title>Blood_Icon_100x100_1</title><g id="Layer_4" data-name="Layer 4"><rect class="cls-1" width="100" height="100"/></g><g id="Layer_1" data-name="Layer 1"><path class="cls-2" d="M50,0C34.44,26.89,14.93,45,14.93,64.29S30.63,100,50,100,85.07,83.62,85.07,64.29,65.56,26.89,50,0ZM29.05,69a2.57,2.57,0,0,1,2.68,1.82C34.11,79.54,40.91,85.71,50,85.71a2.51,2.51,0,0,1,2.63,2.35,2.49,2.49,0,0,1-2.56,2.42H50c-11.69,0-20.48-8.15-23.3-18.49a2.37,2.37,0,0,1,1.86-2.91A2.76,2.76,0,0,1,29.05,69Z"/></g></svg>