<svg xmlns="http://www.w3.org/2000/svg" viewBox="0 0 100 100"><defs><style>.cls-1{fill:#fff;opacity:0;}.cls-2{fill:#4d4d4d;}</style></defs><title>COVID_Icon_100x100</title><g id="Layer_4" data-name="Layer 4"><rect class="cls-1" width="100" height="100"/></g><g id="Layer_1" data-name="Layer 1"><path class="cls-2" d="M96.87,39.58a3.13,3.13,0,0,0-3.12,3.13h0v3.12h-8.6A35.21,35.21,0,0,0,77.8,28.1L83.88,22l2.45,2.07a3.12,3.12,0,1,0,4.42-4.41h0L80.33,9.25a3.12,3.12,0,0,0-4.41,4.42h0L78,16.12,71.9,22.2a35.21,35.21,0,0,0-17.73-7.35V6.25h3.12a3.13,3.13,0,1,0,0-6.25H42.71a3.13,3.13,0,1,0,0,6.25h3.12v8.6A35.21,35.21,0,0,0,28.1,22.2L22,16.12l2.07-2.45a3.12,3.12,0,0,0-4.41-4.42h0L9.49,19.67a3.12,3.12,0,0,0,4.42,4.41L16.12,22,22.2,28.1a35.21,35.21,0,0,0-7.35,17.73H6.25V42.71a3.13,3.13,0,1,0-6.25,0V57.29a3.13,3.13,0,1,0,6.25,0h0V54.17h8.6A35.21,35.21,0,0,0,22.2,71.9L16.12,78l-2.45-2.07a3.12,3.12,0,0,0-4.42,4.41L19.67,90.75a3.12,3.12,0,0,0,4.41-4.42h0L22,83.88,28.1,77.8a35.21,35.21,0,0,0,17.73,7.35v8.6H42.71a3.13,3.13,0,1,0,0,6.25H57.29a3.13,3.13,0,1,0,0-6.25H54.17v-8.6A35.21,35.21,0,0,0,71.9,77.8L78,83.88l-2.07,2.45a3.12,3.12,0,0,0,4.41,4.42L90.75,80.33a3.12,3.12,0,0,0-4.42-4.41L83.88,78,77.8,71.9a35.21,35.21,0,0,0,7.35-17.73h8.6v3.12a3.13,3.13,0,1,0,6.25,0h0V42.71a3.13,3.13,0,0,0-3.12-3.13ZM38.54,41.67a7.3,7.3,0,1,1,7.29-7.3,7.29,7.29,0,0,1-7.29,7.3Zm24,27.08a4.17,4.17,0,1,1,4.17-4.17A4.17,4.17,0,0,1,62.5,68.75Z"/></g></svg>