<svg xmlns="http://www.w3.org/2000/svg" viewBox="0 0 100 100"><defs><style>.cls-1{fill:#fff;opacity:0;}.cls-2,.cls-3{fill:#4d4d4d;}.cls-3{stroke:#4d4d4d;stroke-width:0.25px;}</style></defs><title>Flood_Icon_100x100</title><g id="Layer_4" data-name="Layer 4"><rect class="cls-1" width="100" height="100"/></g><g id="Layer_1" data-name="Layer 1"><path class="cls-2" d="M49.16,50.86a9.58,9.58,0,0,0-11.62-7.63A10,10,0,0,0,30,53.2V75.72c1-.15,2-.34,3-.56,5.47-1.2,10.93-4.68,16.37-3.88V69.84c0-3.62,0-13.25,0-16.87A13.91,13.91,0,0,0,49.16,50.86Z"/><path class="cls-2" d="M97.18,35.51c-1.13-.86-2.28-1.73-3.39-2.59-1.8-1.4-3.6-2.77-5.38-4.13L72.27,16.36l-3.18-2.43c-4.9-3.74-9.8-7.53-14.68-11.27A8.35,8.35,0,0,0,51.86,1.3l-.11,0c-.25-.08-.5-.14-.77-.21l-.44,0A4.88,4.88,0,0,0,50,1a5,5,0,0,0-.54,0l-.45,0-.76.21-.11,0a8.48,8.48,0,0,0-2.53,1.36c-6,4.56-11.92,9.15-17.87,13.7V11.29a2.23,2.23,0,0,0-2.22-2.22H17.12A2.23,2.23,0,0,0,14.9,11.3c0,5,.07,9.24-.06,13.47a4.1,4.1,0,0,1-1,2.26C11.34,29,8.79,31,6.23,32.92,5.1,33.78,4,34.64,2.85,35.51,1.31,36.69.29,38,.37,39.77a4.24,4.24,0,0,0,.77,2.56,5.88,5.88,0,0,0,6.42,2.13,6.64,6.64,0,0,0,1.62-.72V72.4c2.39.19,4.78,2.24,7.16,2.14V50.7h0V38.87a2.09,2.09,0,0,1,.08-.55q15.66-11.94,31.26-24l1.08-.8A2.64,2.64,0,0,1,50,13.14a2.5,2.5,0,0,1,1.2.41l1.09.8q15.6,12,31.29,24c0,.19.06.36.06.55V50.7h0V75.39c2.38-.07,4.77-2.89,7.16-2.36V43.74a6.59,6.59,0,0,0,1.63.72,5.88,5.88,0,0,0,6.41-2.14,4.35,4.35,0,0,0,.76-2.56C99.72,38,98.72,36.69,97.18,35.51Z"/><polyline class="cls-2" points="88.41 28.78 72.26 16.37 69.09 13.93"/><path id="Path_653" data-name="Path 653" class="cls-3" d="M84.67,78.33A20.36,20.36,0,0,1,74,81a20.46,20.46,0,0,1-10.67-2.67A26.21,26.21,0,0,0,50,75a26.21,26.21,0,0,0-13.33,3.32A20.36,20.36,0,0,1,26,81a20.36,20.36,0,0,1-10.67-2.67A26.21,26.21,0,0,0,2,75v6a20.27,20.27,0,0,1,10.67,2.67A26.21,26.21,0,0,0,26,87a26.21,26.21,0,0,0,13.33-3.32A20.27,20.27,0,0,1,50,81a20.36,20.36,0,0,1,10.67,2.67A26.31,26.31,0,0,0,74,87a26.31,26.31,0,0,0,13.33-3.32A20.46,20.46,0,0,1,98,81V75A26.21,26.21,0,0,0,84.67,78.33Z"/><path id="Path_653-2" data-name="Path 653" class="cls-3" d="M84.67,90.47A20.36,20.36,0,0,1,74,93.14a20.36,20.36,0,0,1-10.67-2.67A26.31,26.31,0,0,0,50,87.15a26.21,26.21,0,0,0-13.33,3.32A20.27,20.27,0,0,1,26,93.14a20.27,20.27,0,0,1-10.67-2.67A26.21,26.21,0,0,0,2,87.15v6a20.36,20.36,0,0,1,10.67,2.67A26.21,26.21,0,0,0,26,99.14a26.21,26.21,0,0,0,13.33-3.32A20.36,20.36,0,0,1,50,93.15a20.46,20.46,0,0,1,10.67,2.67A26.21,26.21,0,0,0,74,99.14a26.21,26.21,0,0,0,13.33-3.32A20.46,20.46,0,0,1,98,93.15v-6A26.31,26.31,0,0,0,84.67,90.47Z"/></g></svg>