<svg xmlns="http://www.w3.org/2000/svg" viewBox="0 0 100 100"><defs><style>.cls-1{fill:#fff;opacity:0;}.cls-2{fill:#4d4d4d;}</style></defs><title>How_to_Guide_Icon_100x100_1</title><g id="Layer_4" data-name="Layer 4"><rect class="cls-1" width="100" height="100"/></g><g id="Layer_1" data-name="Layer 1"><g id="Group_788" data-name="Group 788"><path id="Icon_awesome-question" data-name="Icon awesome-question" class="cls-2" d="M50.07,0A37.85,37.85,0,0,0,16.47,17.8a4.69,4.69,0,0,0,1,6.42l8.44,6.39a4.69,4.69,0,0,0,6.49-.8,19,19,0,0,1,16.14-9.67c6,0,13.46,3.87,13.46,9.7,0,4.4-3.63,6.67-9.56,10-6.92,3.88-16.07,8.71-16.07,20.77v1.92a4.69,4.69,0,0,0,4.69,4.69H55.23a4.69,4.69,0,0,0,4.69-4.69V61.38C59.92,53,84.37,52.67,84.37,30,84.34,13,66.65,0,50.07,0ZM48.1,73A13.53,13.53,0,1,0,61.64,86.47,13.52,13.52,0,0,0,48.1,73Z"/></g></g></svg>