<svg id="Layer_4" data-name="Layer 4" xmlns="http://www.w3.org/2000/svg" viewBox="0 0 100 100"><defs><style>.cls-1{fill:#fff;opacity:0;}.cls-2{fill:#4d4d4d;}.cls-3{fill:none;stroke:#4d4d4d;stroke-miterlimit:10;stroke-width:8px;}</style></defs><title>Message_Icon_100x100_1</title><rect class="cls-1" width="100" height="100"/><path class="cls-2" d="M92,26V79H8V26H92m0-8H8a8,8,0,0,0-8,8V79a8,8,0,0,0,8,8H92a8,8,0,0,0,8-8V26a8,8,0,0,0-8-8Z"/><path class="cls-3" d="M7,22S39.15,59,49,59,94,23,94,23"/><line class="cls-3" x1="65.91" y1="49.3" x2="94.56" y2="84.16"/><line class="cls-3" x1="7" y1="83" x2="33.11" y2="51.08"/></svg>