<svg id="Layer_1" data-name="Layer 1" xmlns="http://www.w3.org/2000/svg" viewBox="0 0 100 100"><defs><style>.cls-1{fill:#fff;opacity:0;}.cls-2{fill:#4d4d4d;fill-rule:evenodd;}</style></defs><title>Service_Finder_Icon_100x100_1</title><rect class="cls-1" width="100" height="100"/><g id="Group_788" data-name="Group 788"><g id="Group_642" data-name="Group 642"><g id="Group_641" data-name="Group 641"><g id="Places"><path id="Path_114" data-name="Path 114" class="cls-2" d="M39.15,39.94A6.54,6.54,0,0,0,45.7,33.4v0a6.75,6.75,0,0,0-6.55-6.8,6.56,6.56,0,0,0-6.57,6.53v0A6.92,6.92,0,0,0,39.15,39.94Zm-11-17.8a15.57,15.57,0,0,1,22,22l-11,11-11-11A16,16,0,0,1,28.13,22.14Z"/></g></g></g></g><path id="Path_2078" data-name="Path 2078" class="cls-2" d="M71.67,62.3H67.16l-1.57-1.55a36.32,36.32,0,0,0,8.92-23.82A36.91,36.91,0,1,0,37.6,73.58a36.94,36.94,0,0,0,24-8.83l1.57,1.54v4.47L91.55,98.9,100,90.49,71.68,62.3Zm-34.07,0A25.46,25.46,0,0,1,12.05,36.93h0A25.55,25.55,0,1,1,37.6,62.3Z"/></svg>