<svg xmlns="http://www.w3.org/2000/svg" viewBox="0 0 100 100"><defs><style>.cls-1{fill:#fff;opacity:0;}.cls-2{fill:none;stroke:#4d4d4d;stroke-linecap:round;stroke-linejoin:round;stroke-width:8px;}</style></defs><title>Serttings_Icon_100x100_1</title><g id="Layer_4" data-name="Layer 4"><rect class="cls-1" width="100" height="100"/></g><g id="Layer_1" data-name="Layer 1"><path id="Path_2111" data-name="Path 2111" class="cls-2" d="M62.42,50A12.42,12.42,0,1,1,50,37.58,12.42,12.42,0,0,1,62.42,50Z"/><path id="Path_2112" data-name="Path 2112" class="cls-2" d="M80.63,62.42A6.84,6.84,0,0,0,82,70l.25.25A8.29,8.29,0,0,1,70.53,81.92l-.24-.25a6.9,6.9,0,0,0-11.68,4.88v.71a8.28,8.28,0,0,1-16.56,0h0v-.37a6.83,6.83,0,0,0-4.47-6.26A6.84,6.84,0,0,0,30.05,82l-.25.25A8.29,8.29,0,0,1,18.08,70.53l.25-.24a6.9,6.9,0,0,0-4.88-11.68h-.71a8.28,8.28,0,0,1,0-16.56h.37a6.83,6.83,0,0,0,6.26-4.47A6.84,6.84,0,0,0,18,30.05l-.25-.25A8.29,8.29,0,1,1,29.47,18.08l.24.25a6.86,6.86,0,0,0,7.54,1.37h.33a6.84,6.84,0,0,0,4.14-6.25v-.71a8.28,8.28,0,0,1,16.56,0v.37A6.9,6.9,0,0,0,70,18l.25-.25A8.29,8.29,0,0,1,81.92,29.47l-.25.24a6.84,6.84,0,0,0-1.38,7.54v.33a6.81,6.81,0,0,0,6.26,4.14h.71a8.28,8.28,0,0,1,0,16.56h-.37A6.85,6.85,0,0,0,80.63,62.42Z"/></g></svg>