<svg xmlns="http://www.w3.org/2000/svg" viewBox="0 0 100 100"><defs><style>.cls-1{fill:#fff;opacity:0;}.cls-2{fill:#4d4d4d;}</style></defs><title>Trash_Icon_100x100</title><g id="Layer_4" data-name="Layer 4"><rect class="cls-1" width="100" height="100"/></g><g id="Layer_1" data-name="Layer 1"><g id="Group_709" data-name="Group 709"><g id="delete"><g id="Group_654" data-name="Group 654"><g id="Group_653" data-name="Group 653"><g id="Group_652" data-name="Group 652"><path id="Path_649" data-name="Path 649" class="cls-2" d="M68.2,25.24l-5.69-.37-1.24,60.8L67,86Z"/><rect id="Rectangle_1480" data-name="Rectangle 1480" class="cls-2" x="47.14" y="24.97" width="5.69" height="60.98"/><path id="Path_650" data-name="Path 650" class="cls-2" d="M38.72,85.67,37.48,24.86l-5.69.38L33,86.05Z"/><path id="Path_651" data-name="Path 651" class="cls-2" d="M3.39,10.92v8.21h8.16L18,96.26A4,4,0,0,0,21.91,100H78a4,4,0,0,0,3.89-3.74l6.48-77.13h8.29V10.92Zm71,80.87H25.51L19.4,19.13h61Z"/></g></g></g><g id="Group_656" data-name="Group 656"><g id="Group_655" data-name="Group 655"><path id="Path_652" data-name="Path 652" class="cls-2" d="M59.3,0H40.69a4.75,4.75,0,0,0-4.75,4.74v9h5.69V5.69H58.34v8.08H64v-9A4.75,4.75,0,0,0,59.3,0Z"/></g></g></g></g></g></svg>